<?xml version="1.0" encoding="iso-8859-1"?>
<!-- Uploaded to: SVG Repo, www.svgrepo.com, Generator: SVG Repo Mixer Tools -->
<svg fill="#000000" height="800px" width="800px" version="1.1" id="Layer_1" xmlns="http://www.w3.org/2000/svg" xmlns:xlink="http://www.w3.org/1999/xlink" 
	 viewBox="0 0 511.993 511.993" xml:space="preserve">
<g>
	<g>
		<g>
			<path d="M418.127,127.997c-58.761,0-93.867,51.516-93.867,101.325c0,31.019,7.927,48.111,21.052,76.425
				c25.967,56.021,65.254,116.941,65.647,117.547c1.579,2.44,4.275,3.908,7.168,3.908s5.589-1.468,7.168-3.908
				c0.393-0.606,39.68-61.525,65.647-117.547c13.124-28.314,21.052-45.406,21.052-76.425
				C511.993,179.512,476.887,127.997,418.127,127.997z M475.462,298.561c-18.833,40.636-44.894,84.019-57.335,104.09
				c-12.442-20.07-38.502-63.454-57.335-104.09c-12.544-27.076-19.465-41.993-19.465-69.239c0-41.412,28.723-84.258,76.8-84.258
				s76.8,42.846,76.8,84.258C494.927,256.568,488.006,271.485,475.462,298.561z"/>
			<path d="M418.127,170.663c-28.237,0-51.2,22.963-51.2,51.2c0,28.237,22.963,51.2,51.2,51.2s51.2-22.963,51.2-51.2
				C469.327,193.627,446.363,170.663,418.127,170.663z M418.127,255.997c-18.825,0-34.133-15.309-34.133-34.133
				s15.309-34.133,34.133-34.133c18.825,0,34.133,15.309,34.133,34.133S436.951,255.997,418.127,255.997z"/>
			<path d="M418.127,443.73h-8.533c-4.719,0-8.533,3.814-8.533,8.533s3.814,8.533,8.533,8.533h8.533
				c4.719,0,8.533-3.814,8.533-8.533S422.846,443.73,418.127,443.73z"/>
			<path d="M328.785,443.73h-16.162c-4.71,0-8.533,3.814-8.533,8.533s3.823,8.533,8.533,8.533h16.162
				c4.719,0,8.533-3.814,8.533-8.533S333.504,443.73,328.785,443.73z"/>
			<path d="M377.272,443.73H361.11c-4.719,0-8.533,3.814-8.533,8.533s3.814,8.533,8.533,8.533h16.162
				c4.71,0,8.533-3.814,8.533-8.533S381.982,443.73,377.272,443.73z"/>
			<path d="M43.012,439.369c-3.789-2.125-7.083-4.907-9.822-8.277c-2.953-3.661-8.32-4.233-11.998-1.271
				c-3.669,2.961-4.233,8.337-1.263,11.998c4.087,5.069,9.045,9.25,14.729,12.433c1.331,0.742,2.756,1.092,4.173,1.092
				c2.978,0,5.879-1.562,7.45-4.352C48.585,446.879,47.117,441.682,43.012,439.369z"/>
			<path d="M68.689,366.939c0-4.71-4.241-8.533-8.943-8.542h-0.085c-6.17,0-12.194,1.092-17.929,3.243
				c-4.412,1.655-6.639,6.579-4.992,10.991c1.297,3.422,4.548,5.53,7.996,5.53c0.998,0,2.014-0.171,2.995-0.538
				c3.831-1.442,8.201-1.937,11.981-2.159h0.853C65.276,375.463,68.681,371.649,68.689,366.939z"/>
			<path d="M86.379,443.73H70.217c-4.71,0-8.533,3.814-8.533,8.533s3.823,8.533,8.533,8.533h16.162c4.719,0,8.533-3.814,8.533-8.533
				S91.098,443.73,86.379,443.73z"/>
			<path d="M117.585,366.93c0-4.719-3.814-8.533-8.533-8.533H92.89c-4.71,0-8.533,3.814-8.533,8.533
				c0,4.719,3.823,8.533,8.533,8.533h16.162C113.771,375.463,117.585,371.649,117.585,366.93z"/>
			<path d="M25.69,406.977c0.333-4.326,1.459-8.499,3.362-12.382c2.074-4.233,0.333-9.344-3.9-11.418
				c-4.232-2.108-9.352-0.333-11.418,3.9c-2.867,5.845-4.565,12.109-5.06,18.62c-0.358,4.702,3.166,8.798,7.868,9.148
				c0.222,0.017,0.435,0.026,0.649,0.026C21.619,414.87,25.357,411.465,25.69,406.977z"/>
			<path d="M192.226,273.063c-4.719,0-8.533,3.814-8.533,8.533s3.814,8.533,8.533,8.533h12.629c0.913,0,1.877,0.034,2.807,0.111
				c0.239,0.026,0.478,0.034,0.725,0.034c4.386,0,8.115-3.371,8.491-7.817c0.401-4.693-3.089-8.832-7.782-9.216
				c-1.434-0.128-2.884-0.145-4.301-0.179H192.226z"/>
			<path d="M143.74,273.063c-4.71,0-8.533,3.814-8.533,8.533s3.823,8.533,8.533,8.533h16.171c4.719,0,8.533-3.814,8.533-8.533
				s-3.814-8.533-8.533-8.533H143.74z"/>
			<path d="M247.377,333.3c-4.335-1.843-9.353,0.137-11.213,4.463c-1.715,3.985-4.139,7.56-7.211,10.633
				c-3.337,3.337-3.337,8.738,0,12.066c1.664,1.672,3.849,2.5,6.033,2.5c2.185,0,4.369-0.828,6.033-2.5
				c4.608-4.608,8.252-9.975,10.82-15.949C253.7,340.178,251.704,335.16,247.377,333.3z"/>
			<path d="M280.307,443.73h-16.154c-4.719,0-8.533,3.814-8.533,8.533s3.814,8.533,8.533,8.533h16.154
				c4.719,0,8.533-3.814,8.533-8.533S285.026,443.73,280.307,443.73z"/>
			<path d="M231.829,443.73h-16.162c-4.719,0-8.533,3.814-8.533,8.533s3.814,8.533,8.533,8.533h16.162
				c4.71,0,8.533-3.814,8.533-8.533S236.54,443.73,231.829,443.73z"/>
			<path d="M134.857,443.73h-16.154c-4.719,0-8.533,3.814-8.533,8.533s3.814,8.533,8.533,8.533h16.154
				c4.719,0,8.533-3.814,8.533-8.533S139.576,443.73,134.857,443.73z"/>
			<path d="M183.343,443.73h-16.154c-4.719,0-8.533,3.814-8.533,8.533s3.814,8.533,8.533,8.533h16.154
				c4.719,0,8.533-3.814,8.533-8.533S188.062,443.73,183.343,443.73z"/>
			<path d="M166.072,366.93c0-4.719-3.823-8.533-8.533-8.533h-16.162c-4.719,0-8.533,3.814-8.533,8.533
				c0,4.719,3.814,8.533,8.533,8.533h16.162C162.249,375.463,166.072,371.649,166.072,366.93z"/>
			<path d="M242.983,290.139c-3.149-3.524-8.55-3.806-12.049-0.683c-3.516,3.14-3.814,8.533-0.683,12.049
				c2.901,3.251,5.129,6.946,6.613,11.017c1.263,3.456,4.531,5.598,8.013,5.598c0.973,0,1.971-0.162,2.935-0.512
				c4.42-1.63,6.699-6.528,5.077-10.948C250.663,300.558,247.326,294.994,242.983,290.139z"/>
			<path d="M214.549,366.742c-0.094-4.651-3.9-8.363-8.533-8.363h-0.171l-15.983,0.017c-4.719,0-8.533,3.814-8.533,8.533
				c0,4.719,3.814,8.533,8.533,8.533h14.933l1.399-0.017C210.906,375.344,214.643,371.453,214.549,366.742z"/>
			<path d="M102.393,273.063c-4.719,0-8.533,3.814-8.533,8.533s3.814,8.533,8.533,8.533h8.533c4.719,0,8.533-3.814,8.533-8.533
				s-3.814-8.533-8.533-8.533H102.393z"/>
			<path d="M97.004,236.95c1.587,1.323,3.533,1.98,5.461,1.98c2.185,0,4.361-0.836,6.016-2.483
				c6.468-6.426,63.548-63.189,75.648-76.297c20.224-21.914,26.291-52.053,15.445-76.8c-8.806-20.139-27.554-32.154-50.142-32.154
				c-21.41,0-37.299,11.733-47.061,25.225C92.609,62.93,76.737,51.197,55.31,51.197c-22.682,0-41.472,12.356-50.261,33.058
				c-10.539,24.832-4.233,55.39,15.693,76.024C32.056,172.003,92.78,233.417,97.004,236.95z M20.758,90.919
				c6.118-14.396,18.714-22.656,34.551-22.656c20.344,0,33.801,15.505,39.142,28.783c1.297,3.234,4.429,5.35,7.919,5.35
				c3.482,0,6.613-2.116,7.91-5.342c5.35-13.286,18.816-28.791,39.151-28.791c15.838,0,28.407,7.996,34.509,21.931
				c6.656,15.189,5.41,39.125-12.356,58.377c-10.095,10.931-52.753,53.495-69.205,69.888c-15.71-15.539-58.453-58.735-69.35-70.025
				C15.425,130.207,14.188,106.416,20.758,90.919z"/>
		</g>
	</g>
</g>
</svg>